<svg xmlns="http://www.w3.org/2000/svg" viewBox="0 0 533.5 544.3">
  <path fill="#4285F4" d="M533.5 278.4c0-17.3-1.5-34-4.3-50.2H272v95.1h146.9c-6.4 34.7-25.8 64.1-54.8 83.8v69.5h88.7c51.8-47.7 80.7-118.2 80.7-198.2z"/>
  <path fill="#34A853" d="M272 544.3c73.7 0 135.6-24.5 180.9-66.7l-88.7-69.5c-24.6 16.5-56.2 26.2-92.2 26.2-70.9 0-131-47.9-152.4-112.2H26.6v70.5C70.3 475.5 163.9 544.3 272 544.3z"/>
  <path fill="#FBBC04" d="M119.6 322.1c-10.3-30.2-10.3-62.7 0-92.9V158.7H26.6c-34.7 69.2-34.7 151.7 0 220.9l93-57.5z"/>
  <path fill="#EA4335" d="M272 107.7c38.7-.6 75.8 13.5 104.3 39.5l78.1-78.1C412.8 23.6 344.2-.4 272 0 163.9 0 70.3 68.8 26.6 158.7l93 70.5C141 155.6 201.1 107.7 272 107.7z"/>
</svg>
