<svg width="288" height="382" viewBox="0 0 288 382" fill="none" xmlns="http://www.w3.org/2000/svg">
<g clip-path="url(#clip0_175_73)">
<path d="M288.529 380.094H-0.174805V0H288.529V380.094Z" fill="white"/>
<path d="M288.529 380.094H-0.174805V0H288.529V380.094ZM2.39504 377.521H285.959V2.57307H2.39504V377.521Z" fill="#E4E4E4"/>
<path d="M244.18 96.146H43.2168V109.56H244.18V96.146Z" fill="#E4E4E4"/>
<path d="M218.342 48.2373H89.1514V54.9445H218.342V48.2373Z" fill="#E4E4E4"/>
<path d="M244.18 125.849H43.2168V139.264H244.18V125.849Z" fill="#E4E4E4"/>
<path d="M244.18 155.553H43.2168V168.967H244.18V155.553Z" fill="#E4E4E4"/>
<path d="M53.7424 63.5678C60.6131 63.5678 66.1829 57.991 66.1829 51.1116C66.1829 44.2321 60.6131 38.6553 53.7424 38.6553C46.8716 38.6553 41.3018 44.2321 41.3018 51.1116C41.3018 57.991 46.8716 63.5678 53.7424 63.5678Z" fill="#394C5D"/>
<path d="M244.179 200.06H41.3018V323.665H244.179V200.06Z" fill="#394C5D"/>
</g>
<defs>
<clipPath id="clip0_175_73">
<rect width="288" height="382" fill="white"/>
</clipPath>
</defs>
</svg>
