<svg width="494" height="350" viewBox="0 0 494 350" fill="none" xmlns="http://www.w3.org/2000/svg">
<g clip-path="url(#clip0_162_519)">
<path d="M29.1978 295.251L14.0527 282.418C15.7847 272.131 19.9987 262.422 26.3288 254.136C26.8378 272.675 45.8176 285.091 52.3488 302.445C54.3444 307.874 55.0944 313.682 54.543 319.44C53.9917 325.198 52.1533 330.758 49.164 335.708L47.6403 349.714C39.3693 345.399 32.1309 339.339 26.4241 331.954C20.7172 324.568 16.6774 316.031 14.583 306.932C13.4586 301.815 12.9822 296.578 13.165 291.342C20.9194 293.704 29.1978 295.251 29.1978 295.251Z" fill="#F2F2F2"/>
<path d="M453.737 319.795L464.313 302.988C474.729 303.269 484.92 306.091 493.999 311.209C475.735 314.303 466.106 334.853 449.854 343.751C444.764 346.488 439.124 348.042 433.352 348.3C427.581 348.557 421.825 347.511 416.512 345.239L402.447 345.684C405.56 336.882 410.542 328.86 417.05 322.17C423.557 315.481 431.436 310.284 440.143 306.937C445.046 305.108 450.16 303.904 455.364 303.354C454.11 311.372 453.737 319.795 453.737 319.795Z" fill="#F2F2F2"/>
<path d="M118.968 265.007L60.3262 261.563L68.3646 204.651L120.04 260.413L118.968 265.007Z" fill="#F2F2F2"/>
<path d="M111.503 323.069L51.7891 319.045L59.7511 267.312L111.772 319.054L111.503 323.069Z" fill="#F2F2F2"/>
<path d="M445.088 82.9949V30.4256C445.088 26.4301 444.302 22.4737 442.775 18.7823C441.248 15.0908 439.009 11.7367 436.187 8.91147C433.366 6.08618 430.016 3.84505 426.329 2.31602C422.642 0.786984 418.69 0 414.699 0H303.458C299.467 -7.54921e-07 295.515 0.786984 291.828 2.31602C288.141 3.84505 284.791 6.08618 281.969 8.91147C279.147 11.7367 276.909 15.0908 275.382 18.7823C273.854 22.4737 273.068 26.4301 273.068 30.4257V318.825C273.068 326.894 276.27 334.633 281.969 340.339C287.668 346.045 295.398 349.25 303.457 349.25H414.699C422.759 349.25 430.488 346.045 436.187 340.339C441.886 334.633 445.088 326.894 445.088 318.825V120.415C445.596 120.415 446.084 120.212 446.443 119.853C446.803 119.493 447.005 119.005 447.005 118.496V84.9139C447.005 84.405 446.803 83.9169 446.443 83.557C446.084 83.1971 445.597 82.995 445.088 82.9949Z" fill="#3F3D56"/>
<path d="M436.79 38.8153V326.798C436.791 332.78 434.434 338.52 430.231 342.772C426.029 347.024 420.321 349.444 414.346 349.507C414.264 349.515 414.181 349.519 414.098 349.517H302.315C296.297 349.516 290.525 347.123 286.27 342.862C282.015 338.602 279.624 332.823 279.623 326.798V38.8153C279.624 32.79 282.015 27.0116 286.27 22.7511C290.525 18.4905 296.297 16.0968 302.315 16.0962H315.88C315.213 17.7358 314.959 19.5145 315.14 21.2755C315.321 23.0366 315.932 24.7262 316.918 26.1956C317.904 27.665 319.236 28.8692 320.796 29.7022C322.357 30.5353 324.097 30.9716 325.866 30.9729H389.595C391.362 30.968 393.1 30.5292 394.658 29.6949C396.216 28.8607 397.546 27.6564 398.53 26.1878C399.515 24.7192 400.125 23.0312 400.306 21.2717C400.487 19.5122 400.235 17.7351 399.57 16.0962H414.098C420.116 16.0967 425.887 18.4905 430.143 22.7511C434.398 27.0116 436.789 32.79 436.79 38.8153Z" fill="white"/>
<path d="M414.01 334.306C414.01 337.29 413.916 340.248 413.728 343.182C413.646 343.192 413.564 343.196 413.481 343.194H301.701C296.644 343.193 291.731 341.502 287.743 338.388C283.755 335.274 280.92 330.916 279.687 326.005C279.471 325.148 279.308 324.278 279.199 323.401C279.072 322.431 279.009 321.454 279.01 320.475V192.137C287.611 192.563 296.155 193.771 304.538 195.747C305.359 195.937 306.174 196.138 306.984 196.345C307.035 196.356 307.087 196.373 307.139 196.385C307.96 196.592 308.775 196.81 309.585 197.035C326.865 201.786 343.086 209.783 357.384 220.598C358.206 221.213 359.021 221.846 359.83 222.484L359.986 222.604C361.341 223.674 362.675 224.77 363.987 225.893C364.28 226.14 364.573 226.393 364.86 226.652C365.566 227.261 366.273 227.882 366.962 228.508C382.209 242.249 394.313 259.125 402.446 277.981C402.716 278.596 402.974 279.217 403.232 279.838C403.336 280.091 403.439 280.344 403.542 280.597C403.64 280.827 403.732 281.057 403.824 281.287C410.574 298.145 414.032 316.144 414.01 334.306Z" fill="#3F3D56"/>
<path d="M273.683 112.404C272.997 112.404 272.339 112.131 271.854 111.645C271.369 111.159 271.097 110.501 271.096 109.814V92.2027C271.096 91.5158 271.368 90.8571 271.853 90.3714C272.339 89.8857 272.996 89.6128 273.683 89.6128C274.369 89.6128 275.027 89.8857 275.512 90.3714C275.997 90.8571 276.269 91.5158 276.269 92.2027V109.814C276.269 110.501 275.996 111.159 275.511 111.645C275.026 112.131 274.368 112.404 273.683 112.404Z" fill="#3F3D56"/>
<path d="M273.165 78.2169C272.479 78.2161 271.822 77.943 271.337 77.4575C270.852 76.9719 270.579 76.3136 270.578 75.627V58.0153C270.578 57.3284 270.851 56.6696 271.336 56.1839C271.821 55.6982 272.479 55.4253 273.165 55.4253C273.851 55.4253 274.509 55.6982 274.994 56.1839C275.479 56.6696 275.752 57.3284 275.752 58.0153V75.627C275.751 76.3136 275.478 76.9719 274.993 77.4575C274.508 77.943 273.851 78.2161 273.165 78.2169Z" fill="#3F3D56"/>
<path d="M341.975 10.878C341.975 10.1914 342.248 9.5331 342.733 9.04756C343.218 8.56203 343.876 8.2889 344.561 8.28809H362.152C362.492 8.28758 362.829 8.3542 363.143 8.48413C363.457 8.61406 363.743 8.80476 363.984 9.04531C364.224 9.28586 364.415 9.57155 364.545 9.88603C364.676 10.2005 364.743 10.5376 364.743 10.8781C364.743 11.2185 364.676 11.5556 364.545 11.8701C364.415 12.1846 364.224 12.4702 363.984 12.7108C363.743 12.9513 363.457 13.142 363.143 13.272C362.829 13.4019 362.492 13.4685 362.152 13.468H344.561C343.876 13.4672 343.218 13.1941 342.733 12.7085C342.248 12.223 341.975 11.5647 341.975 10.878Z" fill="white"/>
<path d="M273.683 142.448C272.997 142.447 272.339 142.174 271.854 141.688C271.369 141.203 271.097 140.545 271.096 139.858V122.246C271.096 121.559 271.368 120.901 271.853 120.415C272.339 119.929 272.996 119.656 273.683 119.656C274.369 119.656 275.027 119.929 275.512 120.415C275.997 120.901 276.269 121.559 276.269 122.246V139.858C276.269 140.545 275.996 141.203 275.511 141.688C275.026 142.174 274.368 142.447 273.683 142.448Z" fill="#3F3D56"/>
<path d="M371.983 13.468C373.412 13.468 374.57 12.3084 374.57 10.878C374.57 9.44765 373.412 8.28809 371.983 8.28809C370.555 8.28809 369.396 9.44765 369.396 10.878C369.396 12.3084 370.555 13.468 371.983 13.468Z" fill="white"/>
<path opacity="0.2" d="M362.431 321.544C362.43 316.167 363.487 310.842 365.543 305.873C367.598 300.905 370.61 296.391 374.408 292.588C378.206 288.786 382.715 285.77 387.677 283.712C392.64 281.655 397.958 280.596 403.329 280.597H403.542C403.438 280.344 403.335 280.091 403.232 279.838C402.973 279.217 402.715 278.596 402.445 277.981H362.431V226.652H364.86C364.573 226.393 364.28 226.14 363.987 225.893C362.672 224.772 361.338 223.676 359.985 222.605L359.83 222.484V224.036H309.584V197.035C308.774 196.81 307.959 196.592 307.138 196.385C307.086 196.373 307.035 196.356 306.983 196.345V224.036H281.455V226.652H306.983V277.981H281.455V280.597H306.983V321.544H281.645C281.754 322.422 281.917 323.291 282.133 324.148H306.983V341.337H309.584V324.148H359.83V341.337H362.431V324.148H406.269V321.544H362.431ZM359.83 321.544H309.584V280.597H359.83V321.544ZM359.83 277.981H309.584V276.958C309.584 263.616 314.878 250.82 324.301 241.386C333.724 231.952 346.504 226.652 359.83 226.652V277.981Z" fill="black"/>
<path d="M137.028 133.822L109.141 348.603L108.963 349.971H107.803L107.981 348.603L135.891 133.673L137.028 133.822Z" fill="#E5E5E5"/>
<path d="M78.9672 134.093L48.2144 348.626L48.0192 349.994H46.8594L47.0546 348.626L77.8303 133.932L78.9672 134.093Z" fill="#E5E5E5"/>
<path d="M180.39 349.943L179.196 349.948L178.828 348.58L119.338 127.344L120.446 127.045L180.017 348.58L180.39 349.943Z" fill="white"/>
<path d="M177.87 127.037L176.766 127.35L239.457 348.76L240.562 348.446L177.87 127.037Z" fill="white"/>
<path d="M228.595 308.138L171.748 319.913L171.981 321.039L228.828 309.264L228.595 308.138Z" fill="white"/>
<path d="M218.74 273.6L161.893 285.375L162.125 286.501L218.972 274.727L218.74 273.6Z" fill="white"/>
<path d="M208.89 239.061L152.439 250L152.658 251.128L209.108 240.19L208.89 239.061Z" fill="white"/>
<path d="M199.033 204.531L143.812 215.456L144.035 216.584L199.256 205.659L199.033 204.531Z" fill="white"/>
<path d="M77.9978 134.053C77.1343 128.405 78.5471 122.645 81.9255 118.04C85.3038 113.435 90.3709 110.362 96.0121 109.497C101.653 108.633 107.407 110.047 112.006 113.429C116.606 116.812 119.675 121.885 120.538 127.533L119.403 127.707C119 125.059 118.079 122.516 116.694 120.224C115.308 117.932 113.485 115.935 111.329 114.349C109.173 112.762 106.726 111.617 104.127 110.978C101.528 110.338 98.8295 110.218 96.1844 110.623C93.5393 111.029 91 111.952 88.7114 113.34C86.4228 114.728 84.4298 116.554 82.8463 118.714C81.2628 120.874 80.1198 123.324 79.4826 125.926C78.8454 128.529 78.7265 131.231 79.1327 133.879L77.9978 134.053Z" fill="white"/>
<path d="M135.506 134.31C135.041 131.519 135.13 128.663 135.767 125.906C136.404 123.15 137.578 120.545 139.221 118.243C140.864 115.94 142.943 113.984 145.341 112.486C147.739 110.988 150.408 109.978 153.196 109.513C155.984 109.049 158.837 109.138 161.59 109.777C164.343 110.416 166.944 111.592 169.243 113.237C171.543 114.883 173.496 116.966 174.991 119.367C176.486 121.768 177.495 124.441 177.958 127.233L176.825 127.421C175.935 122.088 172.967 117.327 168.572 114.185C164.177 111.042 158.715 109.776 153.388 110.664C148.06 111.552 143.303 114.522 140.163 118.921C137.022 123.32 135.754 128.787 136.639 134.122L135.506 134.31Z" fill="white"/>
<path d="M194.84 181.226L183.805 208.104L219.759 207.843L216.103 181.166L194.84 181.226Z" fill="#FFB6B6"/>
<path d="M203.619 304.611L208.952 305.39L214.489 285.166L206.619 284.017L203.619 304.611Z" fill="#FFB6B6"/>
<path d="M202.68 301.784L211.183 302.512L210.656 306.128L217.864 312.84C218.22 313.172 218.461 313.609 218.551 314.087C218.642 314.565 218.577 315.06 218.367 315.499C218.157 315.938 217.812 316.298 217.383 316.527C216.954 316.756 216.463 316.841 215.982 316.771L205.945 315.305L204.737 311.475L203.54 314.954L199.756 314.401L202.68 301.784Z" fill="#2F2E41"/>
<path d="M141.988 289.674L146.243 292.987L161.028 278.133L154.749 273.245L141.988 289.674Z" fill="#FFB6B6"/>
<path d="M142.567 286.752L149.604 291.586L147.363 294.471L150.323 303.87C150.469 304.335 150.464 304.833 150.307 305.294C150.15 305.755 149.85 306.153 149.451 306.431C149.051 306.709 148.574 306.852 148.088 306.839C147.602 306.826 147.133 306.658 146.749 306.359L138.742 300.125L139.579 296.197L136.824 298.631L133.805 296.281L142.567 286.752Z" fill="#2F2E41"/>
<path d="M185.835 201.726L182.294 206.422L172.868 247.478L151.445 276.447L158.647 283.37L185.972 256.829L199.381 228.472L206.166 254.664L204.443 289.731L215.927 289.156C219.039 248.461 223.907 206.589 218.173 194.83C214.393 198.131 209.98 200.626 205.205 202.161C200.429 203.696 195.39 204.24 190.398 203.758L185.835 201.726Z" fill="#2F2E41"/>
<path d="M204.79 137.76L213.849 147.679C215.838 149.856 217.098 152.599 217.455 155.527C217.617 156.857 217.59 158.203 217.374 159.525L215.421 173.85L218.866 195.695C218.866 195.695 213.956 198.693 204.512 204.893C200.657 207.423 182.671 207.382 182.693 206.617C182.795 203.075 185.96 193.528 186.713 181.898C187.641 167.543 186.423 150.41 189.583 142.233C193.441 132.25 204.79 137.76 204.79 137.76Z" fill="#394C5D"/>
<path d="M173.7 201.318C174.096 200.742 174.36 200.087 174.475 199.398C174.59 198.709 174.553 198.003 174.366 197.33C174.179 196.657 173.846 196.033 173.392 195.502C172.939 194.972 172.374 194.547 171.738 194.259L172.093 183.344L165.521 181.511L165.237 196.931C164.823 198.032 164.828 199.247 165.249 200.345C165.67 201.443 166.479 202.348 167.522 202.889C168.566 203.429 169.771 203.568 170.91 203.279C172.048 202.989 173.041 202.292 173.7 201.318Z" fill="#FFB6B6"/>
<path d="M164.934 157.259C165.128 156.75 165.426 156.288 165.808 155.9C166.189 155.513 166.647 155.209 167.153 155.008C170.65 153.536 185.773 141.164 186.331 141.396L191.132 139.023C191.309 139.025 196.038 139.137 198.358 141.771C198.84 142.327 199.197 142.982 199.403 143.689C199.609 144.396 199.659 145.139 199.551 145.867C198.872 152.14 177.433 166.23 175.161 166.135L172.754 183.946L173.691 190.75L164.924 190.999L162.222 180.981C161.834 180.25 161.345 166.411 164.934 157.259Z" fill="#394C5D"/>
<path d="M200.082 147.746C200.792 142.876 198.06 138.446 193.981 137.85C189.902 137.254 186.02 140.719 185.31 145.588C184.601 150.458 187.332 154.888 191.411 155.484C195.491 156.08 199.373 152.615 200.082 147.746Z" fill="#394C5D"/>
<path d="M134.179 179.583L133.957 178.455L187.285 166.377V167.527L134.179 179.583Z" fill="white"/>
<path d="M370.264 98.3418H349.811C345.399 98.3418 341.822 101.923 341.822 106.34V106.34C341.822 110.757 345.399 114.338 349.811 114.338H370.264C374.676 114.338 378.252 110.757 378.252 106.34C378.252 101.923 374.676 98.3418 370.264 98.3418Z" fill="#E6E6E6"/>
<path d="M408.209 130.334H311.865C307.454 130.334 303.877 133.915 303.877 138.333V138.333C303.877 142.75 307.454 146.331 311.865 146.331H408.209C412.621 146.331 416.198 142.75 416.198 138.333C416.198 133.915 412.621 130.334 408.209 130.334Z" fill="#E6E6E6"/>
<path d="M366.867 154.278H270.524C266.112 154.278 262.535 157.859 262.535 162.276V162.276C262.535 166.694 266.112 170.274 270.524 170.274H366.867C371.279 170.274 374.856 166.694 374.856 162.276C374.856 157.859 371.279 154.278 366.867 154.278Z" fill="#2D4254"/>
<path d="M493.864 349.138C493.864 349.228 493.847 349.317 493.813 349.4C493.778 349.483 493.728 349.558 493.665 349.622C493.601 349.686 493.526 349.736 493.443 349.77C493.36 349.805 493.271 349.822 493.181 349.822L152.874 349.943L151.679 349.948L81.4466 349.971H80.2867L20.5037 349.994H19.3439L0.683268 350C0.502055 350 0.328261 349.928 0.200123 349.8C0.0719859 349.671 0 349.497 0 349.316C0 349.134 0.0719859 348.96 0.200123 348.832C0.328261 348.704 0.502055 348.632 0.683268 348.632L19.5391 348.626H20.699L80.4647 348.603H81.6246L151.312 348.58H152.501L211.882 348.557H212.663L493.181 348.454C493.271 348.453 493.36 348.471 493.443 348.505C493.526 348.539 493.601 348.59 493.665 348.653C493.728 348.717 493.778 348.792 493.813 348.876C493.847 348.959 493.864 349.048 493.864 349.138Z" fill="#CACACA"/>
<path d="M214.376 127.856C212.662 130.135 210.223 131.763 207.462 132.47C204.701 133.176 201.782 132.921 199.185 131.744C196.589 130.568 194.469 128.542 193.177 125.999C191.884 123.456 191.495 120.548 192.074 117.754C192.652 114.96 194.164 112.447 196.36 110.628C198.556 108.809 201.305 107.793 204.154 107.747C207.004 107.702 209.784 108.629 212.037 110.377C214.29 112.124 215.881 114.588 216.549 117.362C216.585 117.512 216.615 117.662 216.645 117.817C216.997 119.556 216.977 121.35 216.586 123.08C216.195 124.811 215.442 126.439 214.376 127.856Z" fill="#FFB6B6"/>
<path d="M217.639 117.963C217.323 116.389 217.443 117.202 217.12 115.633C217.187 116.393 217.021 117.155 216.645 117.818L201.867 115.659L203.12 107.058C207.7 105.973 212.146 105.129 214.239 108.682C216.518 109.015 218.571 110.241 219.947 112.089C221.323 113.937 221.909 116.257 221.577 118.538L217.639 117.963Z" fill="#2F2E41"/>
<path d="M208.916 141.106C208.928 140.945 208.935 140.778 208.936 140.615C208.907 139.418 208.752 138.227 208.473 137.062C208.221 135.8 207.965 134.53 207.708 133.267C207.947 135.527 207.442 137.803 206.271 139.75C204.06 137.44 205.522 134.097 202.26 133.62C194.42 132.475 188.04 124.056 189.184 116.201C190.328 108.351 194.547 102.971 202.387 104.116C210.234 105.262 216.073 109.787 215.083 117.659C205.093 118.524 210.856 140.576 208.916 141.106Z" fill="#2F2E41"/>
<path d="M191.667 111.282C194.559 111.282 196.904 108.935 196.904 106.039C196.904 103.143 194.559 100.796 191.667 100.796C188.774 100.796 186.43 103.143 186.43 106.039C186.43 108.935 188.774 111.282 191.667 111.282Z" fill="#2F2E41"/>
<path d="M197.878 101.709C197.39 100.651 196.648 99.7302 195.719 99.0275C194.79 98.3249 193.703 97.8624 192.553 97.6812C193.363 98.0479 194.071 98.6086 194.613 99.3137C195.156 100.019 195.517 100.847 195.665 101.725C195.813 102.602 195.743 103.503 195.461 104.347C195.179 105.192 194.694 105.954 194.049 106.566L195.108 105.655C195.397 105.901 195.756 106.048 196.134 106.075C196.513 106.102 196.89 106.008 197.21 105.805C197.525 105.593 197.787 105.313 197.977 104.985C198.168 104.657 198.282 104.29 198.31 103.911C198.361 103.152 198.212 102.393 197.878 101.709Z" fill="#2F2E41"/>
<path d="M264.542 157.167C263.92 156.851 263.236 156.676 262.538 156.653C261.841 156.631 261.147 156.762 260.506 157.037C259.864 157.312 259.291 157.725 258.826 158.246C258.361 158.767 258.016 159.384 257.815 160.053L246.964 161.153L246.023 167.919L261.326 166.149C262.471 166.413 263.673 166.247 264.703 165.682C265.734 165.118 266.523 164.195 266.919 163.088C267.316 161.981 267.293 160.766 266.855 159.675C266.416 158.584 265.594 157.691 264.542 157.167Z" fill="#FFB6B6"/>
<path d="M222.094 171.727C221.565 171.602 221.067 171.369 220.633 171.041C220.198 170.714 219.836 170.3 219.57 169.825C217.648 166.55 203.388 153.19 203.544 152.606L200.557 148.157C200.535 147.981 200.017 143.274 202.316 140.621C202.802 140.068 203.402 139.628 204.075 139.329C204.747 139.031 205.476 138.882 206.212 138.892C212.512 138.732 228.351 158.695 228.559 160.962L247.471 160.417L254.082 158.582L255.496 167.249L245.938 171.262C245.266 171.744 231.632 174.071 222.094 171.727Z" fill="#394C5D"/>
</g>
<defs>
<clipPath id="clip0_162_519">
<rect width="494" height="350" fill="white"/>
</clipPath>
</defs>
</svg>
