<svg width="322" height="346" viewBox="0 0 322 346" fill="none" xmlns="http://www.w3.org/2000/svg">
<path d="M150.916 69.2666C155.152 64.955 160.81 63.6463 163.555 66.343C166.3 69.0397 165.087 74.72 160.849 79.0326C159.179 80.7791 157.116 82.1003 154.831 82.8857L136.649 100.927L128.363 92.2126L147.167 75.3522C147.912 73.0533 149.198 70.9666 150.916 69.2666Z" fill="#FFB6B6"/>
<path d="M92.7682 54.3734L111.831 96.6625L142.272 80.185L153.165 85.967C153.165 85.967 128.281 127.57 111.242 122.833C94.2039 118.097 63.9484 75.1564 69.3998 61.9036C74.8513 48.6508 92.7682 54.3734 92.7682 54.3734Z" fill="#2D4254"/>
<path d="M181.135 78.2459C176.711 74.1283 175.246 68.507 177.868 65.6914C180.489 62.8758 186.2 63.9313 190.626 68.0508C192.417 69.6722 193.793 71.6989 194.64 73.9613L213.17 91.6447L204.687 100.163L187.32 81.8264C185.002 81.1439 182.881 79.9161 181.136 78.2459H181.135Z" fill="#ED9DA0"/>
<path d="M274.477 80.9712L238.71 119.051C238.71 119.051 230.678 126.998 217.463 115.537C204.248 104.077 189.557 85.2739 189.557 85.2739L197.799 76.3032L212.398 89.3282C212.398 89.3282 221.066 92.816 221.669 95.0726C222.271 97.3293 220.587 98.2626 223.295 97.5396C226.003 96.8165 226.054 95.2035 226.225 97.6499C226.397 100.096 224.741 102.956 227.87 100.186C230.998 97.4169 231.932 99.1018 231.932 99.1018L254.792 68.8206C254.792 68.8206 269.563 57.1395 273.81 67.6104C278.056 78.0814 274.476 80.9712 274.476 80.9712H274.477Z" fill="#F2F2F2"/>
<path d="M84.4091 336.222H98.3093L104.921 282.607H84.4062L84.4091 336.222Z" fill="#ED9DA0"/>
<path d="M132.033 335.907C132.465 336.636 132.694 338.989 132.694 339.836C132.694 341.088 132.197 342.288 131.312 343.173C130.427 344.057 129.227 344.554 127.976 344.554H84.929C84.0754 344.554 83.2568 344.215 82.6532 343.612C82.0496 343.008 81.7105 342.189 81.7105 341.336V339.543C81.7105 339.543 79.5808 334.157 83.9653 327.518C83.9653 327.518 89.4143 332.716 97.5567 324.574L99.958 320.225L117.336 332.936L126.97 334.121C129.078 334.381 130.947 334.081 132.031 335.907H132.033Z" fill="#090814"/>
<path d="M271.328 73.2817L270.122 58.7031H254.081L250.525 74.1489L271.328 73.2817Z" fill="#ED9DA0"/>
<path d="M94.9279 57.088L95.209 38.34L83.6497 31.1333L71.0762 46.5105L94.9279 57.088Z" fill="#ED9DA0"/>
<path d="M259.577 63.342C269.26 63.342 277.11 55.4919 277.11 45.8084C277.11 36.1249 269.26 28.2749 259.577 28.2749C249.893 28.2749 242.043 36.1249 242.043 45.8084C242.043 55.4919 249.893 63.342 259.577 63.342Z" fill="#ED9DA0"/>
<path d="M94.9637 44.1744C106.319 44.1744 115.525 34.9688 115.525 23.6131C115.525 12.2574 106.319 3.05176 94.9637 3.05176C83.608 3.05176 74.4023 12.2574 74.4023 23.6131C74.4023 34.9688 83.608 44.1744 94.9637 44.1744Z" fill="#ED9DA0"/>
<path d="M123.004 181.059L103.85 311.399H79.8199L83.0152 236.998L84.6967 197.877L79.8199 179.255C78.2712 176.289 76.903 173.231 75.7228 170.099C73.6112 164.438 71.9434 157.649 74.4194 154.43C75.3303 153.243 77.6988 152.365 80.9178 151.711C83.1427 151.279 85.388 150.959 87.6451 150.753C101.856 149.347 122.07 150.225 122.07 150.225L122.585 167.184L122.87 176.653L123.004 181.059Z" fill="#090814"/>
<path d="M5.26562 315.455L17.5109 322.033L48.7111 277.932L30.6386 268.224L5.26562 315.455Z" fill="#ED9DA0"/>
<path d="M47.3676 337.718C47.4038 338.565 46.4914 340.745 46.0904 341.492C45.4982 342.594 44.4925 343.416 43.2944 343.777C42.0964 344.137 40.8041 344.007 39.7019 343.415L1.7811 323.041C1.02921 322.637 0.468588 321.951 0.222552 321.134C-0.0234848 320.316 0.065217 319.435 0.469144 318.683L1.3173 317.104C1.3173 317.104 1.99088 311.351 8.99498 307.578C8.99498 307.578 11.3349 314.736 22.3619 311.417L26.5357 308.722L35.8307 328.145L43.7557 333.749C45.4896 334.975 47.2758 335.595 47.3686 337.717L47.3676 337.718Z" fill="#090814"/>
<path d="M122.871 176.653L112.705 197.035L83.017 236.997L34.1429 302.787L12.9746 291.418L70.9972 193.723L75.5191 175.008C75.5191 175.008 75.5191 172.986 75.7246 170.098C76.1266 164.385 77.3315 155.28 80.9196 151.711C81.3757 151.241 81.9141 150.86 82.508 150.585C83.5873 150.099 85.3812 150.216 87.6454 150.753C97.1117 153.014 114.774 162.727 122.585 167.183L122.87 176.653H122.871Z" fill="#090814"/>
<path d="M270.026 337.857H258.075L252.389 291.757H270.028L270.026 337.857Z" fill="#ED9DA0"/>
<path d="M229.079 337.586C228.707 338.212 228.508 340.235 228.508 340.963C228.508 342.039 228.935 343.07 229.696 343.831C230.457 344.592 231.488 345.019 232.564 345.019H269.579C270.312 345.019 271.016 344.728 271.535 344.209C272.054 343.69 272.346 342.986 272.346 342.252V340.711C272.346 340.711 274.177 336.08 270.407 330.372C270.407 330.372 265.722 334.843 258.721 327.84L256.656 324.101L241.713 335.031L233.43 336.05C231.617 336.274 230.011 336.016 229.079 337.586Z" fill="#090814"/>
<path d="M317.105 323.773L306.057 328.33L283.217 287.883L299.523 281.156L317.105 323.773Z" fill="#ED9DA0"/>
<path d="M279.149 339.141C279.044 339.862 279.634 341.805 279.91 342.481C280.113 342.973 280.412 343.421 280.788 343.798C281.164 344.175 281.611 344.474 282.102 344.679C282.594 344.883 283.122 344.989 283.654 344.99C284.187 344.99 284.715 344.886 285.207 344.683L319.421 330.565C319.757 330.426 320.062 330.223 320.32 329.966C320.577 329.709 320.782 329.405 320.921 329.069C321.061 328.733 321.133 328.373 321.133 328.009C321.134 327.646 321.062 327.286 320.923 326.95L320.336 325.525C320.336 325.525 320.261 320.546 314.6 316.707C314.6 316.707 311.974 322.626 302.832 318.825L299.497 316.155L289.854 331.958L282.586 336.06C280.995 336.957 279.412 337.332 279.149 339.139V339.141Z" fill="#090814"/>
<path d="M275.503 179.722L270.626 198.341L271.925 228.558L274.078 278.743L274.139 280.159L274.382 285.802L275.503 311.86H251.472L240.774 239.062L232.318 181.525L233.206 152.223L233.254 150.691C233.254 150.691 276.233 148.822 280.904 154.895C285.575 160.968 275.504 179.72 275.504 179.72L275.503 179.722Z" fill="#090814"/>
<path d="M308.938 293.131L304.864 295.238L289.798 303.035L287.593 304.177L274.382 285.808L240.774 239.068L232.318 181.526L233.206 152.223C237.009 151.013 240.05 150.518 241.592 151.237C248.534 154.484 248.204 175.768 248.204 175.768L252.432 194.548L271.926 228.558L308.938 293.131Z" fill="#090814"/>
<path d="M73.719 42.5439L97.0755 53.756C97.0755 53.756 121.835 127.101 121.835 130.838C121.835 134.575 128.843 136.911 124.638 141.116C120.433 145.321 132.464 148.881 125.981 152.24C119.499 155.598 79.062 173.968 74.5653 172.314C62.164 167.747 75.0885 150.955 75.0885 150.955C75.0885 150.955 65.773 143.453 67.1744 139.716C68.5758 135.978 58.7656 64.5019 58.7656 64.5019L73.7147 42.5454L73.719 42.5439Z" fill="#394C5D"/>
<path d="M93.7084 28.5387L96.3528 33.8279C96.3528 33.8279 98.9976 24.3074 103.229 22.1915C107.46 20.0756 107.989 16.9023 107.989 16.9023C107.989 16.9023 113.278 23.7784 116.98 22.1915C120.681 20.6046 122.269 19.5471 118.038 13.2009C113.806 6.85473 114.864 10.0276 114.864 10.0276C114.864 10.0276 111.162 4.73837 111.691 6.32528C112.22 7.91219 108.518 2.09162 108.518 3.68091C108.518 5.27019 105.873 0.507563 105.873 2.094C105.873 3.68043 94.7659 -1.60832 96.3528 0.507087C97.9397 2.62249 86.8323 -3.72657 81.5431 4.74075C76.2538 13.2081 68.9196 11.6383 71.5288 16.9185C74.138 22.1987 73.08 36.4775 73.08 36.4775H80.3748C80.3748 36.4775 87.8902 22.1901 93.7084 28.5387Z" fill="#090814"/>
<path d="M249.373 73.3769L249.801 73.256L270.863 67.3037L287.681 90.195L276.467 137.846L280.672 156.999C280.672 156.999 246.569 148.123 233.021 155.598C233.021 155.598 232.086 151.338 233.021 149.264C233.955 147.189 235.356 138.556 233.955 134.697C232.554 130.838 236.758 112.619 236.758 112.619C236.758 112.619 235.356 100.472 241.43 94.3996C247.503 88.3269 249.374 73.3773 249.374 73.3773L249.373 73.3769Z" fill="#F2F2F2"/>
<path d="M156.234 122.64C155.868 122.458 155.543 122.203 155.278 121.891L143.73 108.282C143.355 107.839 143.116 107.297 143.041 106.721C142.966 106.146 143.059 105.561 143.308 105.036L164.961 59.6078C165.148 59.2146 165.418 58.8667 165.753 58.588C166.087 58.3093 166.478 58.1064 166.899 57.9934C167.319 57.8804 167.759 57.8598 168.188 57.9332C168.618 58.0066 169.026 58.1722 169.385 58.4186L221.578 94.2206C222.1 94.5781 222.496 95.091 222.709 95.6863C222.923 96.2816 222.943 96.9291 222.768 97.5367C211.882 135.424 231.918 159.738 156.234 122.64Z" fill="#090814"/>
<path d="M206.84 137.041L210.654 132.593L220.292 97.2011C220.439 96.7671 220.441 96.2968 220.297 95.8617C220.153 95.4266 219.871 95.0504 219.493 94.7903L170.581 61.3015C170.333 61.1318 170.051 61.0174 169.755 60.966C169.458 60.9146 169.154 60.9274 168.864 61.0036C168.573 61.0797 168.301 61.2175 168.068 61.4075C167.835 61.5975 167.645 61.8354 167.512 62.105L146.892 103.977C146.738 104.282 146.663 104.621 146.673 104.963C146.683 105.304 146.777 105.638 146.948 105.934C146.99 106.019 147.042 106.099 147.102 106.172L157.472 119.86L206.84 137.041Z" fill="#F2F2F2"/>
<path d="M155.004 101.407C155.09 101.407 155.175 101.383 155.249 101.338C155.323 101.292 155.383 101.227 155.422 101.15L172.19 67.8399C172.218 67.785 172.236 67.7249 172.241 67.6632C172.247 67.6014 172.24 67.5392 172.221 67.4801C172.202 67.4211 172.171 67.3664 172.131 67.3193C172.091 67.2722 172.041 67.2335 171.986 67.2056C171.931 67.1778 171.87 67.1612 171.808 67.1569C171.747 67.1526 171.684 67.1606 171.626 67.1806C171.567 67.2005 171.513 67.2319 171.466 67.273C171.42 67.3141 171.382 67.364 171.355 67.4199L154.589 100.73C154.553 100.801 154.536 100.88 154.539 100.96C154.543 101.039 154.567 101.117 154.608 101.185C154.65 101.253 154.709 101.309 154.778 101.348C154.848 101.387 154.926 101.407 155.006 101.407L155.004 101.407Z" fill="#2D4254"/>
<path d="M163.881 107.013C163.967 107.013 164.052 106.989 164.126 106.944C164.2 106.899 164.259 106.834 164.298 106.756L181.065 73.4464C181.093 73.3915 181.111 73.3314 181.116 73.2696C181.122 73.2078 181.115 73.1456 181.096 73.0866C181.077 73.0275 181.046 72.9729 181.006 72.9257C180.966 72.8786 180.916 72.84 180.861 72.8121C180.806 72.7842 180.745 72.7676 180.683 72.7633C180.622 72.759 180.559 72.7671 180.501 72.787C180.442 72.807 180.388 72.8384 180.341 72.8795C180.295 72.9206 180.257 72.9705 180.23 73.0263L163.464 106.336C163.428 106.407 163.411 106.487 163.414 106.566C163.418 106.646 163.442 106.723 163.483 106.791C163.525 106.859 163.584 106.915 163.653 106.954C163.723 106.993 163.801 107.014 163.881 107.014V107.013Z" fill="#2D4254"/>
<path d="M171.355 111.685C171.442 111.685 171.527 111.661 171.601 111.615C171.674 111.57 171.734 111.505 171.773 111.428L188.539 78.1178C188.568 78.0629 188.586 78.0028 188.591 77.941C188.596 77.8792 188.589 77.817 188.57 77.758C188.551 77.6989 188.521 77.6442 188.481 77.5971C188.44 77.55 188.391 77.5114 188.336 77.4835C188.28 77.4556 188.22 77.439 188.158 77.4347C188.096 77.4304 188.034 77.4385 187.975 77.4584C187.917 77.4784 187.863 77.5098 187.816 77.5509C187.77 77.592 187.732 77.6419 187.705 77.6977L170.939 111.008C170.903 111.079 170.886 111.158 170.889 111.238C170.892 111.317 170.916 111.395 170.958 111.463C171 111.531 171.058 111.587 171.128 111.626C171.197 111.664 171.276 111.685 171.355 111.685V111.685Z" fill="#2D4254"/>
<path d="M144.892 107.173C150.689 105.46 156.271 107.063 157.361 110.752C158.45 114.442 154.634 118.82 148.834 120.532C146.527 121.248 144.082 121.401 141.704 120.978L117.05 127.923L114.037 116.285L138.661 110.671C140.429 109.023 142.566 107.823 144.893 107.17L144.892 107.173Z" fill="#FFB6B6"/>
<path d="M101.287 65.9244L97.4225 112.152L132.035 112.524L138.752 122.867C138.752 122.867 96.7999 147.158 84.2031 134.746C71.6062 122.334 66.0026 70.1038 77.2009 61.1637C88.3991 52.2235 101.287 65.9244 101.287 65.9244Z" fill="#394C5D"/>
<path d="M214.67 149.39C208.643 148.936 203.991 145.458 204.28 141.622C204.57 137.786 209.69 135.045 215.72 135.5C218.132 135.649 220.472 136.372 222.546 137.611L248.061 139.857L246.752 151.808L221.738 148.325C219.501 149.239 217.077 149.604 214.67 149.389L214.67 149.39Z" fill="#ED9DA0"/>
<path d="M289.291 93.249L285.122 145.325C285.122 145.325 283.809 156.548 266.332 155.844C248.856 155.141 225.639 149.624 225.639 149.624L226.477 137.47L246.014 138.532C246.014 138.532 254.962 135.845 256.842 137.232C258.721 138.619 257.988 140.4 259.652 138.144C261.317 135.889 260.35 134.596 262.011 136.401C263.671 138.206 264.164 141.473 264.879 137.356C265.594 133.239 267.374 133.973 267.374 133.973L266.328 96.0456C266.328 96.0456 270.575 77.6986 280.429 83.2276C290.283 88.7565 289.291 93.249 289.291 93.249Z" fill="#F2F2F2"/>
<path d="M282.642 66.5231C282.642 66.5231 281.833 72.6662 274.331 72.8665L259.114 73.2737C259.114 73.2737 271.977 41.9689 266.688 45.4933C261.398 49.0177 247.294 34.2351 247.294 34.2351L243.132 42.0407C243.132 42.0407 233.19 38.4402 244.208 29.6251C244.208 29.6251 257.356 19.4605 271.314 25.5642C285.271 31.6678 282.642 66.5231 282.642 66.5231Z" fill="#090814"/>
</svg>
